# xmcd
#
# Track frame offsets: 
#        150
#        36792
#        61525
#
# Disc length: 1144 seconds
#
# Revision: 0
# Processed by: cddbd v1.5.1PL2 Copyright (c) Steve Scherf et al.
# Submitted via: ExactAudioCopy v0.90b3
#
DISCID=19047603
DTITLE=Various Artist - Rich and Famous # Love In Stereo
DYEAR=2001
DGENRE=Disco
TTITLE0=Dave Rodgers - Rich And Famous
TTITLE1=Cristal - Love In Stereo (vocal)
TTITLE2=Cristal - Love In Stereo (instrumental)
EXTD=ZYX - GDC\nSplit Single
EXTT0=
EXTT1=
EXTT2=
PLAYORDER=
